<svg width="231" height="231" viewBox="0 0 231 231" fill="none" xmlns="http://www.w3.org/2000/svg">
<g clip-path="url(#clip0_2563_3)">
<rect width="231" height="231" rx="23" fill="#0C0B0B"/>
<path d="M105.611 57.7886L106.057 76.1069H104.396C103.612 71.5138 101.68 67.8258 98.6001 65.043C95.547 62.2331 92.2373 60.8281 88.6709 60.8281C85.915 60.8281 83.7266 61.5711 82.1055 63.0571C80.5114 64.5161 79.7144 66.2048 79.7144 68.123C79.7144 69.3389 79.998 70.4196 80.5654 71.3652C81.349 72.6351 82.6053 73.8914 84.3345 75.1343C85.6043 76.0259 88.5358 77.6064 93.1289 79.876C99.5592 83.0371 103.896 86.0226 106.138 88.8325C108.354 91.6424 109.461 94.8576 109.461 98.478C109.461 103.071 107.665 107.029 104.071 110.353C100.505 113.649 95.9658 115.297 90.4541 115.297C88.7249 115.297 87.0903 115.121 85.5503 114.77C84.0103 114.419 82.0785 113.757 79.7549 112.784C78.458 112.244 77.3908 111.974 76.5532 111.974C75.8507 111.974 75.1077 112.244 74.3242 112.784C73.5407 113.325 72.9058 114.149 72.4194 115.256H70.9199V94.5063H72.4194C73.6082 100.342 75.8913 104.8 79.2686 107.88C82.6729 110.933 86.3338 112.46 90.2515 112.46C93.2775 112.46 95.6821 111.636 97.4653 109.988C99.2756 108.34 100.181 106.421 100.181 104.233C100.181 102.936 99.8294 101.68 99.127 100.464C98.4515 99.248 97.4113 98.0998 96.0063 97.019C94.6014 95.9113 92.1157 94.4793 88.5493 92.7231C83.5509 90.2645 79.9575 88.1706 77.769 86.4414C75.5806 84.7122 73.8919 82.7804 72.7031 80.646C71.5413 78.5116 70.9604 76.161 70.9604 73.5942C70.9604 69.2173 72.568 65.4888 75.7832 62.4087C78.9984 59.3286 83.0511 57.7886 87.9414 57.7886C89.7246 57.7886 91.4538 58.0047 93.1289 58.437C94.3988 58.7612 95.9388 59.3691 97.749 60.2607C99.5863 61.1253 100.87 61.5576 101.599 61.5576C102.302 61.5576 102.855 61.3415 103.261 60.9092C103.666 60.4769 104.044 59.4367 104.396 57.7886H105.611ZM120.627 55.9V114H129.757V85.531L151.835 114H163.538L138.223 81.879L161.629 55.9H150.507L129.757 78.227V55.9L120.627 55.9ZM91.1654 156.574C91.1654 164.542 87.7624 167.032 82.5334 167.032C77.8854 167.032 74.9804 163.795 73.9844 158.483L64.7714 160.392C66.0164 168.692 72.1584 175.664 82.5334 175.664C92.1614 175.664 100.295 170.186 100.295 156.159V116.9H91.1654V156.574ZM153.231 124.827L158.54 118.262L160.891 120.045L155.5 126.813C158.31 129.866 160.35 132.96 161.62 136.094C162.89 139.228 163.525 142.916 163.525 147.158C163.525 156.425 160.229 163.923 153.636 169.65C148.557 174.054 142.978 176.256 136.898 176.256C134.116 176.256 131.184 175.757 128.104 174.757C125.051 173.73 122.39 172.298 120.12 170.461L114.892 176.905L112.501 175L117.851 168.354C112.42 162.761 109.705 155.628 109.705 146.955C109.705 139.012 112.352 132.338 117.648 126.935C122.944 121.504 129.32 118.789 136.777 118.789C142.91 118.789 148.395 120.801 153.231 124.827ZM149.827 129.001C146.693 124.111 142.275 121.666 136.574 121.666C134.062 121.666 132.076 121.963 130.617 122.558C128.59 123.368 126.78 124.665 125.186 126.448C123.052 128.826 121.485 131.73 120.485 135.162C119.485 138.593 118.985 142.457 118.985 146.752C118.985 152.994 119.972 158.505 121.944 163.288L149.827 129.001ZM151.367 131.919L123.605 166.206C125.064 168.421 126.632 170.042 128.307 171.069C130.711 172.582 133.386 173.338 136.331 173.338C139.168 173.338 141.492 172.92 143.302 172.082C145.112 171.217 146.801 169.894 148.368 168.11C149.962 166.327 151.326 163.814 152.461 160.572C153.596 157.33 154.163 153.277 154.163 148.414C154.163 145.091 153.92 142.011 153.434 139.174C153.055 137.093 152.366 134.675 151.367 131.919Z" fill="white"/>
</g>
<defs>
<clipPath id="clip0_2563_3">
<rect width="231" height="231" rx="23" fill="white"/>
</clipPath>
</defs>
</svg>